<?xml version="1.0" encoding="UTF-8"?>
<svg xmlns="http://www.w3.org/2000/svg" xmlns:xlink="http://www.w3.org/1999/xlink" width="24pt" height="24pt" viewBox="0 0 24 24" version="1.1">
<g id="surface2826013">
<rect x="0" y="0" width="24" height="24" style="fill:rgb(57.647061%,85.882354%,43.921569%);fill-opacity:1;stroke:none;"/>
<path style=" stroke:none;fill-rule:nonzero;fill:rgb(100%,100%,100%);fill-opacity:1;" d="M 12 1.125 C 6 1.125 1.125 6 1.125 12 C 1.125 18 6 22.875 12 22.875 C 18 22.875 22.875 18 22.875 12 C 22.875 6 18 1.125 12 1.125 Z M 12 2.25 C 17.382812 2.25 21.75 6.617188 21.75 12 C 21.75 17.382812 17.382812 21.75 12 21.75 C 6.617188 21.75 2.25 17.382812 2.25 12 C 2.25 6.617188 6.617188 2.25 12 2.25 Z M 15.945312 9.179688 C 15.800781 9.183594 15.65625 9.242188 15.542969 9.355469 L 11.625 13.425781 L 9.582031 11.230469 C 9.375 11.007812 9.019531 10.988281 8.792969 11.195312 C 8.570312 11.398438 8.550781 11.757812 8.757812 11.980469 L 11.210938 14.625 C 11.324219 14.738281 11.457031 14.8125 11.625 14.8125 C 11.773438 14.8125 11.925781 14.757812 12.039062 14.644531 L 16.351562 10.125 C 16.554688 9.898438 16.554688 9.542969 16.332031 9.335938 C 16.226562 9.226562 16.085938 9.171875 15.945312 9.179688 Z M 15.945312 9.179688 "/>
</g>
</svg>
